<svg xmlns="http://www.w3.org/2000/svg" width="27.851" height="13.925" viewBox="0 0 27.851 13.925">
  <path id="Icon_awesome-trademark" data-name="Icon awesome-trademark" d="M11.34,6.75H.522A.524.524,0,0,0,0,7.272V9.148a.524.524,0,0,0,.522.522h3.7V20.152a.524.524,0,0,0,.522.522H7.11a.524.524,0,0,0,.522-.522V9.67h3.7a.524.524,0,0,0,.522-.522V7.272A.517.517,0,0,0,11.34,6.75ZM27.849,20.109,26.8,7.229a.522.522,0,0,0-.522-.479H23.437a.52.52,0,0,0-.492.352l-1.906,5.531c-.313.9-.7,2.3-.7,2.3H20.3s-.387-1.4-.7-2.3L17.693,7.1A.525.525,0,0,0,17.2,6.75H14.355a.528.528,0,0,0-.522.479l-1.062,12.88a.521.521,0,0,0,.522.566h2.372a.526.526,0,0,0,.522-.487l.4-5.783a20.6,20.6,0,0,0,0-2.337h.039s.466,1.462.779,2.337l1.336,3.686a.523.523,0,0,0,.492.344h2.189a.523.523,0,0,0,.492-.344L23.245,14.4c.313-.875.779-2.337.779-2.337h.039a20.6,20.6,0,0,0,0,2.337l.4,5.783a.523.523,0,0,0,.522.487h2.345a.526.526,0,0,0,.522-.566Z" transform="translate(0 -6.75)"/>
</svg>
