<svg xmlns="http://www.w3.org/2000/svg" width="27.124" height="23.734" viewBox="0 0 27.124 23.734">
  <path id="Icon_awesome-headphones-alt" data-name="Icon awesome-headphones-alt" d="M8.476,15.812H7.629a3.393,3.393,0,0,0-3.391,3.4v3.378a3.394,3.394,0,0,0,3.391,3.4h.848a1.7,1.7,0,0,0,1.7-1.7V17.511A1.7,1.7,0,0,0,8.476,15.812Zm11.019,0h-.848a1.7,1.7,0,0,0-1.7,1.7v6.775a1.7,1.7,0,0,0,1.7,1.7H19.5a3.394,3.394,0,0,0,3.391-3.4V19.209a3.394,3.394,0,0,0-3.391-3.4ZM13.562,2.25C5.982,2.25.242,8.561,0,15.812v5.933a.847.847,0,0,0,.848.848H1.7a.847.847,0,0,0,.848-.848V15.812a11.019,11.019,0,0,1,22.038,0v5.933a.847.847,0,0,0,.848.848h.848a.847.847,0,0,0,.848-.848V15.812C26.882,8.561,21.143,2.25,13.562,2.25Z" transform="translate(0 -2.25)"/>
</svg>
