<svg xmlns="http://www.w3.org/2000/svg" width="27.295" height="21.836" viewBox="0 0 27.295 21.836">
  <path id="Icon_awesome-shipping-fast" data-name="Icon awesome-shipping-fast" d="M26.612,15.012H25.93V10.4a2.047,2.047,0,0,0-.6-1.446L21.068,4.7a2.047,2.047,0,0,0-1.446-.6H17.741V2.047A2.048,2.048,0,0,0,15.694,0H4.777A2.048,2.048,0,0,0,2.729,2.047V4.094H.341A.342.342,0,0,0,0,4.435v.682a.342.342,0,0,0,.341.341h11.6a.342.342,0,0,1,.341.341v.682a.342.342,0,0,1-.341.341H1.706a.342.342,0,0,0-.341.341v.682a.342.342,0,0,0,.341.341h8.871a.342.342,0,0,1,.341.341v.682a.342.342,0,0,1-.341.341H.341A.342.342,0,0,0,0,9.894v.682a.342.342,0,0,0,.341.341H9.212a.342.342,0,0,1,.341.341v.682a.342.342,0,0,1-.341.341H2.729v5.459a4.094,4.094,0,1,0,8.188,0h5.459a4.094,4.094,0,1,0,8.188,0h2.047a.684.684,0,0,0,.682-.682V15.694A.684.684,0,0,0,26.612,15.012ZM6.824,19.789a2.047,2.047,0,1,1,2.047-2.047A2.048,2.048,0,0,1,6.824,19.789Zm13.647,0a2.047,2.047,0,1,1,2.047-2.047A2.048,2.048,0,0,1,20.471,19.789Zm3.412-8.871H17.741V6.141h1.881L23.883,10.4Z"/>
</svg>
